<svg xmlns="http://www.w3.org/2000/svg" width="35" height="35" viewBox="0 0 35 35"><defs><clipPath id="aycva"><path fill="#fff" d="M2 33V2h31v31zM24.33 4H10.997a6.667 6.667 0 0 0-6.667 6.667V24a6.667 6.667 0 0 0 6.667 6.667H24.33A6.667 6.667 0 0 0 30.997 24V10.667A6.667 6.667 0 0 0 24.33 4z"/></clipPath></defs><g><g><g><path fill="none" stroke="#ffd6be" stroke-miterlimit="20" stroke-width="8" d="M24.33 4v0H10.997a6.667 6.667 0 0 0-6.667 6.667V24a6.667 6.667 0 0 0 6.667 6.667H24.33A6.667 6.667 0 0 0 30.997 24V10.667A6.667 6.667 0 0 0 24.33 4z" clip-path="url(&quot;#aycva&quot;)"/></g><g/><g/></g></g></svg>