<svg xmlns="http://www.w3.org/2000/svg" width="417" height="417" viewBox="0 0 417 417"><g><g><path fill-opacity=".65" d="M312.379 312.829a342932.05 342932.05 0 0 0-102.681 102.725c-1.229 1.229-1.858 1.171-3.104-.083-16.138-16.217-32.359-32.36-48.537-48.537a84156.094 84156.094 0 0 1-51.723-51.768 41808.678 41808.678 0 0 0-52.948-52.851L12.14 221.068l-10.63-10.63c-2.012-2.012-2.008-2.008-.01-4.006L110.797 97.204l95.912-95.911c1.127-1.127 1.8-1.079 2.914.035a21555.142 21555.142 0 0 0 49.175 49.175l45.455 45.455a32167.74 32167.74 0 0 0 44.337 44.25 32191.51 32191.51 0 0 1 35.036 35.088c10.618 10.618 21.209 21.262 31.893 31.814 1.32 1.32.766 1.875-.198 2.839l-51.302 51.301-51.609 51.609zm79.228-104.179c-.418-.506-.625-.801-.876-1.052l-12.537-12.537a28712.612 28712.612 0 0 0-32.65-32.597l-36.096-36.096-36.212-36.211a31345.132 31345.132 0 0 1-31.456-31.501c-10.402-10.402-20.809-20.809-31.272-31.149-2.642-2.641-1.915-3.156-5.058-.013L52.475 180.372l-26.47 26.469c-1.007 1.008-1.4 1.638-.026 2.861 2.795 2.488 5.362 5.283 8.016 7.955 5.199 5.199 10.332 10.463 15.54 15.653 5.665 5.666 11.427 11.234 17.092 16.9 6.304 6.304 12.515 12.691 18.81 18.995 5.837 5.837 11.714 11.625 17.569 17.436 5.3 5.265 10.594 10.536 15.882 15.812 4.53 4.53 9.09 9.029 13.585 13.585 4.785 4.785 9.473 9.667 14.254 14.456 5.841 5.841 11.731 11.635 17.595 17.463a7938.499 7938.499 0 0 0 15.9 15.856c4.701 4.701 9.363 9.451 14.064 14.161l12.326 12.326c1.065 1.065 1.835 1.492 3.169.106 4.75-4.935 9.654-9.654 14.483-14.483l158.829-158.777zM270.965 149.1c19.593-3.491 36.471 1.668 50.641 15.706 7.844 7.765 14.333 16.358 17.406 27.161 3.151 11.075 2.002 21.882-2.245 32.443-4.486 11.15-11.578 20.566-19.981 28.996a71204.596 71204.596 0 0 1-101.309 101.387c-.44.44-.959.881-1.597 1.466-.476-.405-1.009-.806-1.453-1.25-13.47-13.47-26.936-26.936-40.45-40.362-1.29-1.29-1.312-1.964.013-3.289a46258.753 46258.753 0 0 0 92.663-92.662 82.862 82.862 0 0 0 7.043-7.924c2.83-3.667 2.795-6.194.348-9.152-2.787-3.376-6.339-4.428-10.134-2.315a37.707 37.707 0 0 0-8.144 6.022 33005.839 33005.839 0 0 0-94.177 94.045c-1.127 1.127-1.73 1.21-2.865.066a12101.89 12101.89 0 0 0-40.534-40.534c-1.321-1.321-1.092-1.972.105-3.161a50246.687 50246.687 0 0 0 71.19-71.119c8.461-8.461 16.926-16.926 25.285-25.488a38.672 38.672 0 0 0 4.068-5.247c1.58-2.293 1.761-4.728.145-7.1-1.796-2.677-4.147-4.394-7.594-3.949-3.68.467-6.62 2.465-9.165 4.922-6.66 6.404-13.179 12.95-19.716 19.478a164893.616 164893.616 0 0 0-71.251 71.19c-1.845 1.845-3.716 3.663-5.507 5.551-.925.968-1.559.924-2.509-.026a16987.637 16987.637 0 0 0-41.045-41.045c-.88-.88-.89-1.417.004-2.311 18.6-18.547 37.181-37.111 55.743-55.69 15.619-15.618 31.303-31.206 46.855-46.855 7.229-7.272 15.099-13.69 24.735-17.366 19.044-7.264 37.325-5.727 54.321 5.969 8.738 6.018 15.887 13.571 20.681 23.155 4.917 9.759 6.075 20.046 4.702 30.726-.392 3.033-1.066 6.031-1.656 9.341 1.906-.277 3.663-.484 5.384-.779z"/></g></g></svg>