<svg width="75" height="64" fill="none" xmlns="http://www.w3.org/2000/svg"><g filter="url(#filter0_i_70_35)"><rect y=".552" width="74.449" height="62.897" rx="14" fill="#000" fill-opacity=".35"/></g><path d="M46.667 19a2 2 0 00-2-2h-4A8.667 8.667 0 0032 25.667v2h-2a2 2 0 00-2 2V35a2 2 0 002 2h2v8.667a2 2 0 002 2h5.333a2 2 0 002-2V37h2a2 2 0 001.94-1.515l1.334-5.333a2 2 0 00-1.94-2.485h-3.334v-1.334h3.334a2 2 0 002-2V19z" stroke="#000" stroke-opacity=".65" stroke-width="4" stroke-linecap="round" stroke-linejoin="round"/><defs><filter id="filter0_i_70_35" x="0" y=".552" width="74.449" height="62.897" filterUnits="userSpaceOnUse" color-interpolation-filters="sRGB"><feFlood flood-opacity="0" result="BackgroundImageFix"/><feBlend in="SourceGraphic" in2="BackgroundImageFix" result="shape"/><feColorMatrix in="SourceAlpha" values="0 0 0 0 0 0 0 0 0 0 0 0 0 0 0 0 0 0 127 0" result="hardAlpha"/><feOffset/><feGaussianBlur stdDeviation="7.5"/><feComposite in2="hardAlpha" operator="arithmetic" k2="-1" k3="1"/><feColorMatrix values="0 0 0 0 0 0 0 0 0 0 0 0 0 0 0 0 0 0 0.5 0"/><feBlend in2="shape" result="effect1_innerShadow_70_35"/></filter></defs></svg>