<svg xmlns="http://www.w3.org/2000/svg" width="35" height="35"><defs><clipPath id="a"><path fill="#fff" d="M2 33V2h31v31zM24.33 4H10.997a6.667 6.667 0 00-6.667 6.667V24a6.667 6.667 0 006.667 6.667H24.33A6.667 6.667 0 0030.997 24V10.667A6.667 6.667 0 0024.33 4z"/></clipPath></defs><path fill="none" stroke="#000" stroke-miterlimit="20" stroke-opacity=".65" stroke-width="8" d="M24.33 4v0H10.997a6.667 6.667 0 00-6.667 6.667V24a6.667 6.667 0 006.667 6.667H24.33A6.667 6.667 0 0030.997 24V10.667A6.667 6.667 0 0024.33 4z" clip-path="url(&quot;#a&quot;)"/></svg>